<svg width="311" height="130" viewBox="0 0 311 130" fill="none" xmlns="http://www.w3.org/2000/svg">
<path opacity="0.4" d="M0.4 127.876V121.416C2.55333 120.169 4.82 119.093 7.2 118.186C9.69333 117.279 12.0733 116.713 14.34 116.486V20.2661C12.0733 19.8128 9.69333 19.1894 7.2 18.3961C4.70667 17.4894 2.44 16.4694 0.4 15.3361V8.87609H27.77C32.0767 8.87609 36.1567 8.70609 40.01 8.3661C43.8633 8.02609 48.2833 7.85609 53.27 7.85609C58.71 7.85609 63.98 8.25276 69.08 9.04609C74.18 9.83942 78.7133 11.2561 82.68 13.2961C86.6467 15.3361 89.82 18.2261 92.2 21.9661C94.58 25.5928 95.77 30.2961 95.77 36.0761C95.77 39.7028 95.09 43.1028 93.73 46.2761C92.4833 49.3361 90.67 52.0561 88.29 54.4361C86.0233 56.8161 83.3033 58.7994 80.13 60.3861C77.07 61.9728 73.7267 63.1061 70.1 63.7861V64.4661C73.7267 64.9194 77.3533 65.7694 80.98 67.0161C84.72 68.2628 88.0633 70.0761 91.01 72.4561C93.9567 74.8361 96.3367 77.8394 98.15 81.4661C100.077 84.9794 101.04 89.1728 101.04 94.0461C101.04 100.166 99.68 105.436 96.96 109.856C94.24 114.276 90.5567 117.903 85.91 120.736C81.3767 123.569 76.1633 125.666 70.27 127.026C64.3767 128.273 58.2567 128.896 51.91 128.896C49.53 128.896 46.9233 128.839 44.09 128.726C41.2567 128.613 38.4233 128.499 35.59 128.386C32.7567 128.273 29.98 128.159 27.26 128.046C24.6533 127.933 22.4433 127.876 20.63 127.876H0.4ZM51.74 117.846C58.88 117.846 64.49 115.749 68.57 111.556C72.65 107.249 74.69 101.583 74.69 94.5561C74.69 90.2494 74.01 86.7361 72.65 84.0161C71.29 81.1828 69.42 78.9728 67.04 77.3861C64.66 75.6861 61.8267 74.5528 58.54 73.9861C55.2533 73.3061 51.6833 72.9661 47.83 72.9661H38.82V116.656C40.4067 116.996 42.05 117.279 43.75 117.506C45.5633 117.733 48.2267 117.846 51.74 117.846ZM44.26 61.9161C46.1867 61.9161 48.1133 61.8594 50.04 61.7461C51.9667 61.5194 53.78 61.2928 55.48 61.0661C59.9 59.2528 63.47 56.4761 66.19 52.7361C68.91 48.8828 70.27 44.5194 70.27 39.6461C70.27 32.5061 68.4 27.2928 64.66 24.0061C60.92 20.6061 56.1033 18.9061 50.21 18.9061C47.7167 18.9061 45.5633 18.9628 43.75 19.0761C41.9367 19.1894 40.2933 19.3594 38.82 19.5861V61.9161H44.26ZM187.3 103.226C187.3 105.719 187.3 107.873 187.3 109.686C187.414 111.499 187.584 113.426 187.81 115.466L199.54 117.166V123.116C198.18 123.796 196.31 124.476 193.93 125.156C191.664 125.836 189.227 126.516 186.62 127.196C184.127 127.763 181.634 128.216 179.14 128.556C176.647 129.009 174.437 129.349 172.51 129.576H166.73C165.597 126.969 164.917 124.363 164.69 121.756C164.464 119.149 164.294 115.976 164.18 112.236H163.33C162.764 114.503 161.8 116.713 160.44 118.866C159.08 120.906 157.324 122.776 155.17 124.476C153.13 126.063 150.694 127.366 147.86 128.386C145.027 129.406 141.854 129.916 138.34 129.916C134.6 129.916 131.144 129.349 127.97 128.216C124.797 127.083 122.02 125.496 119.64 123.456C117.26 121.416 115.39 118.979 114.03 116.146C112.67 113.199 111.99 109.913 111.99 106.286C111.99 101.186 112.954 96.9928 114.88 93.7061C116.807 90.4194 119.81 87.7561 123.89 85.7161C128.084 83.5628 133.41 81.9761 139.87 80.9561C146.444 79.9361 154.377 79.1994 163.67 78.7461C164.577 68.9994 164.18 61.8594 162.48 57.3261C160.78 52.7928 157.097 50.5261 151.43 50.5261C147.917 50.5261 144.687 51.0928 141.74 52.2261L133.75 72.6261H126.27C125.364 71.2661 124.457 69.7361 123.55 68.0361C122.757 66.2228 121.964 64.3528 121.17 62.4261C120.49 60.3861 119.867 58.3461 119.3 56.3061C118.847 54.2661 118.507 52.2828 118.28 50.3561C122.587 47.4094 128.14 45.0861 134.94 43.3861C141.74 41.6861 148.937 40.8361 156.53 40.8361C162.99 40.8361 168.26 41.5728 172.34 43.0461C176.42 44.4061 179.594 46.3328 181.86 48.8261C184.24 51.2061 185.884 54.0394 186.79 57.3261C187.697 60.6128 188.15 64.1261 188.15 67.8661C188.15 74.6661 187.98 80.8428 187.64 86.3961C187.414 91.8361 187.3 97.4461 187.3 103.226ZM149.05 116.316C151.43 116.316 153.47 115.863 155.17 114.956C156.87 114.049 158.287 112.973 159.42 111.726C160.667 110.479 161.574 109.119 162.14 107.646C162.82 106.173 163.33 104.869 163.67 103.736V86.7361C158.344 86.8494 153.98 87.1894 150.58 87.7561C147.18 88.3228 144.517 89.2861 142.59 90.6461C140.664 91.8928 139.304 93.5361 138.51 95.5761C137.83 97.5028 137.49 99.8828 137.49 102.716C137.49 107.023 138.51 110.366 140.55 112.746C142.59 115.126 145.424 116.316 149.05 116.316ZM254.219 127.876H207.299V121.246C211.039 119.433 214.779 118.073 218.519 117.166V14.1461L205.599 12.7861V6.1561C207.073 5.47609 209.113 4.79609 211.719 4.11609C214.326 3.43609 217.103 2.86943 220.049 2.41609C223.109 1.84943 226.113 1.39609 229.059 1.05609C232.119 0.602756 234.839 0.262757 237.219 0.0360929H242.999V117.166C246.739 118.073 250.479 119.433 254.219 121.246V127.876ZM310.665 127.876H263.745V121.246C265.445 120.339 267.201 119.603 269.015 119.036C270.828 118.356 272.811 117.733 274.965 117.166V54.9461L263.745 53.5861V46.9561C265.445 46.2761 267.541 45.5961 270.035 44.9161C272.641 44.2361 275.361 43.6694 278.195 43.2161C281.028 42.6494 283.805 42.1961 286.525 41.8561C289.245 41.4028 291.625 41.0628 293.665 40.8361H299.445V117.166C301.711 117.733 303.751 118.356 305.565 119.036C307.378 119.603 309.078 120.339 310.665 121.246V127.876ZM272.075 14.9961C272.075 11.0294 273.435 7.91276 276.155 5.64609C278.875 3.37943 282.388 2.24609 286.695 2.24609C291.001 2.24609 294.515 3.37943 297.235 5.64609C299.955 7.91276 301.315 11.0294 301.315 14.9961C301.315 18.8494 299.955 21.9094 297.235 24.1761C294.515 26.4428 291.001 27.5761 286.695 27.5761C282.388 27.5761 278.875 26.4428 276.155 24.1761C273.435 21.9094 272.075 18.8494 272.075 14.9961Z" fill="#F8EEE4"/>
</svg>
