<svg width="366" height="153" viewBox="0 0 366 153" fill="none" xmlns="http://www.w3.org/2000/svg">
<path opacity="0.4" d="M2.83122e-07 150.482V142.882C2.53333 141.415 5.2 140.149 8 139.082C10.9333 138.015 13.7333 137.349 16.4 137.082V23.8819C13.7333 23.3486 10.9333 22.6153 8 21.6819C5.06667 20.6153 2.4 19.4153 2.83122e-07 18.0819V10.4819H32.2C37.2667 10.4819 42.0667 10.2819 46.6 9.88193C51.1333 9.48193 56.3333 9.28193 62.2 9.28193C68.6 9.28193 74.8 9.74859 80.8 10.6819C86.8 11.6153 92.1333 13.2819 96.8 15.6819C101.467 18.0819 105.2 21.4819 108 25.8819C110.8 30.1486 112.2 35.6819 112.2 42.4819C112.2 46.7486 111.4 50.7486 109.8 54.4819C108.333 58.0819 106.2 61.2819 103.4 64.0819C100.733 66.8819 97.5333 69.2153 93.8 71.0819C90.2 72.9486 86.2667 74.2819 82 75.0819V75.8819C86.2667 76.4153 90.5333 77.4153 94.8 78.8819C99.2 80.3486 103.133 82.4819 106.6 85.2819C110.067 88.0819 112.867 91.6153 115 95.8819C117.267 100.015 118.4 104.949 118.4 110.682C118.4 117.882 116.8 124.082 113.6 129.282C110.4 134.482 106.067 138.749 100.6 142.082C95.2667 145.415 89.1333 147.882 82.2 149.482C75.2667 150.949 68.0667 151.682 60.6 151.682C57.8 151.682 54.7333 151.615 51.4 151.482C48.0667 151.349 44.7333 151.215 41.4 151.082C38.0667 150.949 34.8 150.815 31.6 150.682C28.5333 150.549 25.9333 150.482 23.8 150.482H2.83122e-07ZM60.4 138.682C68.8 138.682 75.4 136.215 80.2 131.282C85 126.215 87.4 119.549 87.4 111.282C87.4 106.215 86.6 102.082 85 98.8819C83.4 95.5486 81.2 92.9486 78.4 91.0819C75.6 89.0819 72.2667 87.7486 68.4 87.0819C64.5333 86.2819 60.3333 85.8819 55.8 85.8819H45.2V137.282C47.0667 137.682 49 138.015 51 138.282C53.1333 138.549 56.2667 138.682 60.4 138.682ZM51.6 72.8819C53.8667 72.8819 56.1333 72.8153 58.4 72.6819C60.6667 72.4153 62.8 72.1486 64.8 71.8819C70 69.7486 74.2 66.4819 77.4 62.0819C80.6 57.5486 82.2 52.4153 82.2 46.6819C82.2 38.2819 80 32.1486 75.6 28.2819C71.2 24.2819 65.5333 22.2819 58.6 22.2819C55.6667 22.2819 53.1333 22.3486 51 22.4819C48.8667 22.6153 46.9333 22.8153 45.2 23.0819V72.8819H51.6ZM219.883 121.482C219.883 124.415 219.883 126.949 219.883 129.082C220.016 131.215 220.216 133.482 220.483 135.882L234.283 137.882V144.882C232.683 145.682 230.483 146.482 227.683 147.282C225.016 148.082 222.149 148.882 219.083 149.682C216.149 150.349 213.216 150.882 210.283 151.282C207.349 151.815 204.749 152.215 202.483 152.482H195.683C194.349 149.415 193.549 146.349 193.283 143.282C193.016 140.215 192.816 136.482 192.683 132.082H191.683C191.016 134.749 189.883 137.349 188.283 139.882C186.683 142.282 184.616 144.482 182.083 146.482C179.683 148.349 176.816 149.882 173.483 151.082C170.149 152.282 166.416 152.882 162.283 152.882C157.883 152.882 153.816 152.215 150.083 150.882C146.349 149.549 143.083 147.682 140.283 145.282C137.483 142.882 135.283 140.015 133.683 136.682C132.083 133.215 131.283 129.349 131.283 125.082C131.283 119.082 132.416 114.149 134.683 110.282C136.949 106.415 140.483 103.282 145.283 100.882C150.216 98.3486 156.483 96.4819 164.083 95.2819C171.816 94.0819 181.149 93.2153 192.083 92.6819C193.149 81.2153 192.683 72.8153 190.683 67.4819C188.683 62.1486 184.349 59.4819 177.683 59.4819C173.549 59.4819 169.749 60.1486 166.283 61.4819L156.883 85.4819H148.083C147.016 83.8819 145.949 82.0819 144.883 80.0819C143.949 77.9486 143.016 75.7486 142.083 73.4819C141.283 71.0819 140.549 68.6819 139.883 66.2819C139.349 63.8819 138.949 61.5486 138.683 59.2819C143.749 55.8153 150.283 53.0819 158.283 51.0819C166.283 49.0819 174.749 48.0819 183.683 48.0819C191.283 48.0819 197.483 48.9486 202.283 50.6819C207.083 52.2819 210.816 54.5486 213.483 57.4819C216.283 60.2819 218.216 63.6153 219.283 67.4819C220.349 71.3486 220.883 75.4819 220.883 79.8819C220.883 87.8819 220.683 95.1486 220.283 101.682C220.016 108.082 219.883 114.682 219.883 121.482ZM174.883 136.882C177.683 136.882 180.083 136.349 182.083 135.282C184.083 134.215 185.749 132.949 187.083 131.482C188.549 130.015 189.616 128.415 190.283 126.682C191.083 124.949 191.683 123.415 192.083 122.082V102.082C185.816 102.215 180.683 102.615 176.683 103.282C172.683 103.949 169.549 105.082 167.283 106.682C165.016 108.149 163.416 110.082 162.483 112.482C161.683 114.749 161.283 117.549 161.283 120.882C161.283 125.949 162.483 129.882 164.883 132.682C167.283 135.482 170.616 136.882 174.883 136.882ZM298.611 150.482H243.411V142.682C247.811 140.549 252.211 138.949 256.611 137.882V16.6819L241.411 15.0819V7.28193C243.144 6.48192 245.544 5.68192 248.611 4.88192C251.678 4.08193 254.944 3.41526 258.411 2.88193C262.011 2.21526 265.544 1.68193 269.011 1.28192C272.611 0.748589 275.811 0.34859 278.611 0.0819268H285.411V137.882C289.811 138.949 294.211 140.549 298.611 142.682V150.482ZM365.017 150.482H309.817V142.682C311.817 141.615 313.884 140.749 316.017 140.082C318.151 139.282 320.484 138.549 323.017 137.882V64.6819L309.817 63.0819V55.2819C311.817 54.4819 314.284 53.6819 317.217 52.8819C320.284 52.0819 323.484 51.4153 326.817 50.8819C330.151 50.2153 333.417 49.6819 336.617 49.2819C339.817 48.7486 342.617 48.3486 345.017 48.0819H351.817V137.882C354.484 138.549 356.884 139.282 359.017 140.082C361.151 140.749 363.151 141.615 365.017 142.682V150.482ZM319.617 17.6819C319.617 13.0153 321.217 9.34859 324.417 6.68193C327.617 4.01526 331.751 2.68193 336.817 2.68193C341.884 2.68193 346.017 4.01526 349.217 6.68193C352.417 9.34859 354.017 13.0153 354.017 17.6819C354.017 22.2153 352.417 25.8153 349.217 28.4819C346.017 31.1486 341.884 32.4819 336.817 32.4819C331.751 32.4819 327.617 31.1486 324.417 28.4819C321.217 25.8153 319.617 22.2153 319.617 17.6819Z" fill="#F8EEE4"/>
</svg>
